{"scene":0,"asset":{"generator":"ImageToStl.com","version":"2.0"},"scenes":[{"name":"Scene","nodes":[0]}],"nodes":[{"name":"Node0","children":[1]},{"name":"Node1","mesh":0}],"materials":[{"name":"#97AAAEFF","pbrMetallicRoughness":{"baseColorFactor":[0.5921569,0.6666667,0.68235296,1.0],"metallicFactor":0.05,"roughnessFactor":0.5},"doubleSided":true}],"meshes":[{"name":"Mesh0","primitives":[{"indices":1,"material":0,"attributes":{"POSITION":0}}]}],"accessors":[{"bufferView":0,"componentType":5126,"count":62,"type":"VEC3","min":[0.0,0.0,-1.6],"max":[238.0,98.0,144.4]},{"bufferView":1,"componentType":5123,"count":432,"type":"SCALAR"}],"bufferViews":[{"target":34962,"buffer":0,"byteLength":744,"byteOffset":0},{"target":34963,"buffer":0,"byteLength":864,"byteOffset":744}],"buffers":[{"byteLength":1608,"uri":"data:application/octet-stream;base64,"}]}