<?xml version="1.0" encoding="utf-8"?>
<!-- Generator: Adobe Illustrator 17.0.0, SVG Export Plug-In . SVG Version: 6.00 Build 0)  -->
<!DOCTYPE svg PUBLIC "-//W3C//DTD SVG 1.1//EN" "http://www.w3.org/Graphics/SVG/1.1/DTD/svg11.dtd">
<svg version="1.1" id="Layer_1" xmlns="http://www.w3.org/2000/svg" xmlns:xlink="http://www.w3.org/1999/xlink" x="0px" y="0px"
	 width="306.283px" height="52.855px" viewBox="0 0 306.283 52.855" enable-background="new 0 0 306.283 52.855"
	 xml:space="preserve">
<g>
	<g>
		<path fill="#FFFFFF" d="M20.356,14.319c1.7,0,3.25,0.151,4.649,0.45c1.4,0.3,2.6,0.792,3.6,1.475c1,0.684,1.775,1.592,2.325,2.725
			c0.55,1.133,0.825,2.534,0.825,4.2c0,1.8-0.408,3.3-1.225,4.5c-0.817,1.2-2.025,2.183-3.625,2.95
			c2.2,0.633,3.841,1.742,4.924,3.325c1.083,1.583,1.625,3.492,1.625,5.725c0,1.8-0.35,3.358-1.05,4.674
			c-0.7,1.317-1.642,2.392-2.825,3.225c-1.184,0.834-2.534,1.45-4.05,1.85c-1.517,0.4-3.075,0.6-4.675,0.6H3.558V14.319H20.356z
			 M19.356,28.768c1.4,0,2.55-0.332,3.45-0.999c0.9-0.667,1.35-1.75,1.35-3.25c0-0.832-0.15-1.516-0.45-2.049
			c-0.3-0.533-0.7-0.95-1.2-1.25c-0.5-0.3-1.075-0.508-1.725-0.625c-0.65-0.117-1.325-0.174-2.025-0.174h-7.349v8.349H19.356z
			 M19.806,43.917c0.766,0,1.5-0.075,2.2-0.225c0.7-0.15,1.316-0.4,1.85-0.75c0.533-0.35,0.958-0.825,1.275-1.425
			c0.316-0.6,0.475-1.366,0.475-2.3c0-1.832-0.517-3.141-1.55-3.925c-1.034-0.783-2.4-1.175-4.1-1.175h-8.549v9.8H19.806z"/>
		<path fill="#FFFFFF" d="M42.904,14.319h8.799l8.349,14.099l8.299-14.099h8.749L63.853,36.317v13.699h-7.85V36.118L42.904,14.319z"
			/>
		<path fill="#FFFFFF" d="M85.301,20.918v-6.599h29.248v6.599h-10.7v29.098H96V20.918H85.301z"/>
		<g>
			<path fill="#FFFFFF" d="M126.647,14.319h26.698v6.599h-26.698V14.319z"/>
			<path fill="#FFFFFF" d="M126.647,29.055h26.698v6.599h-26.698V29.055z"/>
			<path fill="#FFFFFF" d="M126.647,43.79h26.698v6.599h-26.698V43.79z"/>
		</g>
		<path fill="#FFFFFF" d="M182.443,14.319c2.299,0,4.441,0.368,6.424,1.1c1.982,0.734,3.7,1.834,5.149,3.3
			c1.45,1.467,2.583,3.299,3.4,5.5c0.816,2.2,1.225,4.783,1.225,7.749c0,2.6-0.334,4.999-1,7.199c-0.667,2.2-1.675,4.1-3.025,5.699
			c-1.35,1.6-3.033,2.859-5.049,3.775c-2.017,0.917-4.392,1.375-7.124,1.375h-15.399V14.319H182.443z M181.893,43.417
			c1.133,0,2.233-0.183,3.299-0.55c1.067-0.366,2.016-0.975,2.85-1.825c0.833-0.85,1.499-1.958,2-3.325
			c0.5-1.366,0.75-3.032,0.75-4.999c0-1.8-0.175-3.425-0.525-4.875c-0.35-1.45-0.925-2.691-1.725-3.724
			c-0.8-1.033-1.859-1.825-3.175-2.375c-1.317-0.55-2.942-0.825-4.875-0.825h-5.599v22.499H181.893z"/>
		<path fill="#FFFFFF" d="M233.239,49.741c-1.7,0.717-3.417,1.075-5.149,1.075c-2.733,0-5.192-0.475-7.375-1.425
			c-2.183-0.95-4.025-2.257-5.525-3.925c-1.5-1.666-2.649-3.624-3.45-5.874c-0.8-2.25-1.2-4.674-1.2-7.275
			c0-2.666,0.4-5.141,1.2-7.424c0.8-2.283,1.95-4.275,3.45-5.975c1.5-1.7,3.341-3.032,5.525-4c2.183-0.966,4.641-1.449,7.375-1.449
			c1.832,0,3.607,0.275,5.324,0.825c1.716,0.55,3.266,1.358,4.65,2.424c1.382,1.067,2.524,2.384,3.425,3.95
			c0.899,1.567,1.45,3.367,1.65,5.4h-7.5c-0.467-2-1.367-3.5-2.699-4.5c-1.334-0.999-2.95-1.499-4.85-1.499
			c-1.767,0-3.268,0.342-4.5,1.025c-1.233,0.684-2.233,1.6-3,2.75c-0.767,1.15-1.325,2.458-1.675,3.925
			c-0.35,1.467-0.525,2.983-0.525,4.549c0,1.5,0.175,2.958,0.525,4.375c0.35,1.417,0.908,2.692,1.675,3.825
			c0.766,1.133,1.767,2.042,3,2.725c1.232,0.684,2.733,1.025,4.5,1.025c2.6,0,4.607-0.657,6.024-1.974
			c1.416-1.317,2.241-3.225,2.475-5.725h-7.899v-5.85h14.999v19.298h-5l-0.8-4.05C236.489,47.766,234.939,49.025,233.239,49.741z"/>
		<path fill="#FFFFFF" d="M284.734,14.319v6.599h-18.848v7.65h17.299v6.099h-17.299v8.75h19.248v6.599h-27.098V14.319H284.734z"/>
		<g>
			<path fill="#FFFFFF" d="M293.707,5.292V4.385h4.012v0.907h-1.468v3.993h-1.076V5.292H293.707z"/>
			<path fill="#FFFFFF" d="M299.797,4.385l1.145,3.368h0.015l1.084-3.368h1.516v4.9h-1.008V5.813h-0.013l-1.201,3.471h-0.83
				l-1.2-3.436h-0.015v3.436h-1.007v-4.9H299.797z"/>
		</g>
	</g>
</g>
</svg>
