{"scene":0,"asset":{"generator":"ImageToStl.com","version":"2.0"},"scenes":[{"name":"Scene","nodes":[0]}],"nodes":[{"name":"Node0","children":[1]},{"name":"Node1","mesh":0}],"materials":[{"name":"#0099FFFF","pbrMetallicRoughness":{"baseColorFactor":[0.0,0.6,1.0,1.0],"metallicFactor":0.05,"roughnessFactor":0.5},"doubleSided":true}],"meshes":[{"name":"Mesh0","primitives":[{"indices":1,"material":0,"attributes":{"POSITION":0}}]}],"accessors":[{"bufferView":0,"componentType":5126,"count":49858,"type":"VEC3","min":[-21.0,-0.5,-229.0],"max":[21.0,20.997305,-0.008653125]},{"bufferView":1,"componentType":5123,"count":299136,"type":"SCALAR"}],"bufferViews":[{"target":34962,"buffer":0,"byteLength":598296,"byteOffset":0},{"target":34963,"buffer":0,"byteLength":598272,"byteOffset":598296}],"buffers":[{"byteLength":1196568,"uri":"data:application/octet-stream;base64,"}]}