{"scene":0,"asset":{"generator":"ImageToStl.com","version":"2.0"},"scenes":[{"name":"Scene","nodes":[0]}],"nodes":[{"name":"Node0","children":[1]},{"name":"Node1","mesh":0,"children":[2,3,4,5]},{"name":"Node2","mesh":1},{"name":"Node3","mesh":2},{"name":"Node4","mesh":3},{"name":"Node5","mesh":4}],"materials":[{"name":"#CCCCCCFF","pbrMetallicRoughness":{"baseColorFactor":[0.8,0.8,0.8,1.0],"metallicFactor":0.05,"roughnessFactor":0.5},"doubleSided":true},{"name":"#00FF00FF","pbrMetallicRoughness":{"baseColorFactor":[0.0,1.0,0.0,1.0],"metallicFactor":0.05,"roughnessFactor":0.5},"doubleSided":true}],"meshes":[{"name":"Mesh0","primitives":[{"indices":1,"material":0,"attributes":{"POSITION":0}}]},{"name":"Mesh0","primitives":[{"indices":3,"material":0,"attributes":{"POSITION":2}}]},{"name":"Mesh0","primitives":[{"indices":5,"material":0,"attributes":{"POSITION":4}}]},{"name":"Mesh0","primitives":[{"indices":7,"material":0,"attributes":{"POSITION":6}}]},{"name":"Mesh0","primitives":[{"indices":9,"material":1,"attributes":{"POSITION":8}}]}],"accessors":[{"bufferView":0,"componentType":5126,"count":9939,"type":"VEC3","min":[-58.519394,-43.260643,-20.0],"max":[58.519394,-0.03614842,3.6314344E-05]},{"bufferView":1,"componentType":5123,"count":51732,"type":"SCALAR"},{"bufferView":2,"componentType":5126,"count":9226,"type":"VEC3","min":[-58.519394,-42.26088,-20.0],"max":[58.519394,43.260643,3.7199545E-05]},{"bufferView":3,"componentType":5123,"count":44847,"type":"SCALAR"},{"bufferView":4,"componentType":5126,"count":8604,"type":"VEC3","min":[-58.519394,-43.260643,-20.0],"max":[58.519394,43.260643,3.7199545E-05]},{"bufferView":5,"componentType":5123,"count":43839,"type":"SCALAR"},{"bufferView":6,"componentType":5126,"count":7019,"type":"VEC3","min":[-55.627266,-43.255074,-20.0],"max":[58.519394,5.0025907,3.6314344E-05]},{"bufferView":7,"componentType":5123,"count":35409,"type":"SCALAR"},{"bufferView":8,"componentType":5126,"count":8796,"type":"VEC3","min":[-57.319454,-42.451508,-20.0],"max":[57.319454,42.451508,-0.7999952]},{"bufferView":9,"componentType":5123,"count":42672,"type":"SCALAR"}],"bufferViews":[{"target":34962,"buffer":0,"byteLength":119268,"byteOffset":0},{"target":34963,"buffer":0,"byteLength":103464,"byteOffset":119268},{"target":34962,"buffer":0,"byteLength":110712,"byteOffset":222732},{"target":34963,"buffer":0,"byteLength":89694,"byteOffset":333444},{"target":34962,"buffer":0,"byteLength":103248,"byteOffset":423140},{"target":34963,"buffer":0,"byteLength":87678,"byteOffset":526388},{"target":34962,"buffer":0,"byteLength":84228,"byteOffset":614068},{"target":34963,"buffer":0,"byteLength":70818,"byteOffset":698296},{"target":34962,"buffer":0,"byteLength":105552,"byteOffset":769116},{"target":34963,"buffer":0,"byteLength":85344,"byteOffset":874668}],"buffers":[{"byteLength":960012,"uri":"data:application/octet-stream;base64,"}]}